REM DIRINDEX 1\2,1\3,1\4,1\5\6,1\5\7,1\8
REM DIRNAME folder01,folder02,folder03,folder04,folder05,folder06,folder07,folder08
TITLE ""
FILE "164 Åy164ÅzUnit10 (1849 cope with Å`_1860 pass over).mp3" MP3
  TRACK 01 AUDIO
    TITLE "0:"
    INDEX 01 00:00:00
  TRACK 02 AUDIO
    TITLE "2:cjc115_6430"
    INDEX 01 00:00:07
  TRACK 03 AUDIO
    TITLE "0:"
    INDEX 01 00:01:28
  TRACK 04 AUDIO
    TITLE "3:cjc115_6431"
    INDEX 01 00:01:32
  TRACK 05 AUDIO
    TITLE "0:"
    INDEX 01 00:02:71
  TRACK 06 AUDIO
    TITLE "4:cjc115_6432"
    INDEX 01 00:03:06
  TRACK 07 AUDIO
    TITLE "0:"
    INDEX 01 00:06:55
  TRACK 08 AUDIO
    TITLE "2:cjc115_6433"
    INDEX 01 00:07:66
  TRACK 09 AUDIO
    TITLE "0:"
    INDEX 01 00:09:24
  TRACK 10 AUDIO
    TITLE "3:cjc115_6434"
    INDEX 01 00:09:34
  TRACK 11 AUDIO
    TITLE "0:"
    INDEX 01 00:11:05
  TRACK 12 AUDIO
    TITLE "4:cjc115_6435"
    INDEX 01 00:11:11
  TRACK 13 AUDIO
    TITLE "0:"
    INDEX 01 00:14:54
  TRACK 14 AUDIO
    TITLE "2:cjc115_6436"
    INDEX 01 00:15:64
  TRACK 15 AUDIO
    TITLE "0:"
    INDEX 01 00:17:16
  TRACK 16 AUDIO
    TITLE "3:cjc115_6437"
    INDEX 01 00:17:25
  TRACK 17 AUDIO
    TITLE "0:"
    INDEX 01 00:19:05
  TRACK 18 AUDIO
    TITLE "4:cjc115_6438"
    INDEX 01 00:19:15
  TRACK 19 AUDIO
    TITLE "0:"
    INDEX 01 00:24:20
  TRACK 20 AUDIO
    TITLE "2:cjc115_6439"
    INDEX 01 00:25:31
  TRACK 21 AUDIO
    TITLE "0:"
    INDEX 01 00:26:48
  TRACK 22 AUDIO
    TITLE "3:cjc115_6440"
    INDEX 01 00:26:50
  TRACK 23 AUDIO
    TITLE "0:"
    INDEX 01 00:29:13
  TRACK 24 AUDIO
    TITLE "4:cjc115_6441"
    INDEX 01 00:29:21
  TRACK 25 AUDIO
    TITLE "0:"
    INDEX 01 00:33:46
  TRACK 26 AUDIO
    TITLE "2:cjc115_6442"
    INDEX 01 00:34:55
  TRACK 27 AUDIO
    TITLE "0:"
    INDEX 01 00:36:11
  TRACK 28 AUDIO
    TITLE "3:cjc115_6443"
    INDEX 01 00:36:21
  TRACK 29 AUDIO
    TITLE "0:"
    INDEX 01 00:37:46
  TRACK 30 AUDIO
    TITLE "4:cjc115_6444"
    INDEX 01 00:37:54
  TRACK 31 AUDIO
    TITLE "0:"
    INDEX 01 00:40:34
  TRACK 32 AUDIO
    TITLE "2:cjc115_6445"
    INDEX 01 00:41:44
  TRACK 33 AUDIO
    TITLE "0:"
    INDEX 01 00:43:35
  TRACK 34 AUDIO
    TITLE "3:cjc115_6446"
    INDEX 01 00:43:46
  TRACK 35 AUDIO
    TITLE "0:"
    INDEX 01 00:45:28
  TRACK 36 AUDIO
    TITLE "4:cjc115_6447"
    INDEX 01 00:45:41
  TRACK 37 AUDIO
    TITLE "0:"
    INDEX 01 00:49:35
  TRACK 38 AUDIO
    TITLE "2:cjc115_6448"
    INDEX 01 00:50:42
  TRACK 39 AUDIO
    TITLE "0:"
    INDEX 01 00:52:06
  TRACK 40 AUDIO
    TITLE "3:cjc115_6449"
    INDEX 01 00:52:16
  TRACK 41 AUDIO
    TITLE "0:"
    INDEX 01 00:55:18
  TRACK 42 AUDIO
    TITLE "4:cjc115_6450"
    INDEX 01 00:55:28
  TRACK 43 AUDIO
    TITLE "0:"
    INDEX 01 00:58:20
  TRACK 44 AUDIO
    TITLE "2:cjc115_6451"
    INDEX 01 00:59:28
  TRACK 45 AUDIO
    TITLE "0:"
    INDEX 01 01:00:55
  TRACK 46 AUDIO
    TITLE "3:cjc115_6452"
    INDEX 01 01:00:66
  TRACK 47 AUDIO
    TITLE "0:"
    INDEX 01 01:02:46
  TRACK 48 AUDIO
    TITLE "4:cjc115_6453"
    INDEX 01 01:02:54
  TRACK 49 AUDIO
    TITLE "0:"
    INDEX 01 01:07:12
  TRACK 50 AUDIO
    TITLE "2:cjc115_6454"
    INDEX 01 01:08:21
  TRACK 51 AUDIO
    TITLE "0:"
    INDEX 01 01:09:48
  TRACK 52 AUDIO
    TITLE "3:cjc115_6455"
    INDEX 01 01:09:57
  TRACK 53 AUDIO
    TITLE "0:"
    INDEX 01 01:11:33
  TRACK 54 AUDIO
    TITLE "4:cjc115_6456"
    INDEX 01 01:11:41
  TRACK 55 AUDIO
    TITLE "0:"
    INDEX 01 01:15:27
  TRACK 56 AUDIO
    TITLE "2:cjc115_6457"
    INDEX 01 01:16:36
  TRACK 57 AUDIO
    TITLE "0:"
    INDEX 01 01:17:65
  TRACK 58 AUDIO
    TITLE "3:cjc115_6458"
    INDEX 01 01:17:73
  TRACK 59 AUDIO
    TITLE "0:"
    INDEX 01 01:19:60
  TRACK 60 AUDIO
    TITLE "4:cjc115_6459"
    INDEX 01 01:19:68
  TRACK 61 AUDIO
    TITLE "0:"
    INDEX 01 01:24:24
  TRACK 62 AUDIO
    TITLE "2:cjc115_6460"
    INDEX 01 01:25:31
  TRACK 63 AUDIO
    TITLE "0:"
    INDEX 01 01:26:56
  TRACK 64 AUDIO
    TITLE "3:cjc115_6461"
    INDEX 01 01:26:66
  TRACK 65 AUDIO
    TITLE "0:"
    INDEX 01 01:29:33
  TRACK 66 AUDIO
    TITLE "4:cjc115_6462"
    INDEX 01 01:29:41
  TRACK 67 AUDIO
    TITLE "0:"
    INDEX 01 01:32:37
  TRACK 68 AUDIO
    TITLE "2:cjc115_6463"
    INDEX 01 01:33:46
  TRACK 69 AUDIO
    TITLE "0:"
    INDEX 01 01:35:04
  TRACK 70 AUDIO
    TITLE "3:cjc115_6464"
    INDEX 01 01:35:10
  TRACK 71 AUDIO
    TITLE "0:"
    INDEX 01 01:37:50
  TRACK 72 AUDIO
    TITLE "4:cjc115_6465"
    INDEX 01 01:37:56
  TRACK 73 AUDIO
    TITLE "0:"
    INDEX 01 01:41:50
